<svg width="90" height="24" viewBox="0 0 90 24" fill="none" xmlns="http://www.w3.org/2000/svg">
<g clip-path="url(#clip0_450_65)">
<path d="M36.7827 3.22429H38.821V12.8114H42.3359V14.7022H36.7912L36.7827 3.22278" fill="white"/>
<path d="M47.0563 6.1005C47.5891 6.09374 48.1162 6.2076 48.5964 6.43315C49.0767 6.6587 49.497 6.98983 49.8244 7.40061V6.27143H51.7265V14.7203H49.8244V13.5903C49.4969 14.0011 49.0766 14.3322 48.5964 14.5579C48.1162 14.7835 47.5891 14.8976 47.0563 14.8912C44.6852 14.8912 42.8853 12.9111 42.8853 10.4932C42.8853 8.07525 44.6852 6.1005 47.0563 6.1005ZM47.4022 7.79012C45.8623 7.79012 44.8431 8.97375 44.8431 10.4909C44.8431 12.0081 45.8793 13.1963 47.4022 13.1963C48.9252 13.1963 49.9614 12.0126 49.9614 10.4909C49.9614 8.96922 48.9414 7.79012 47.4022 7.79012Z" fill="white"/>
<path d="M53.207 13.2531L57.7403 7.95883H53.2751V6.27148H60.1965V7.75916L55.6803 13.0322H60.2994V14.7203H53.207V13.2531Z" fill="white"/>
<path d="M65.136 6.10049C65.6686 6.09385 66.1956 6.20776 66.6756 6.43331C67.1557 6.65886 67.5759 6.98993 67.9033 7.4006V6.27142H69.8054V14.7202H67.9033V13.5903C67.5758 14.001 67.1557 14.3321 66.6756 14.5578C66.1956 14.7834 65.6686 14.8976 65.136 14.8912C62.7641 14.8912 60.9688 12.9111 60.9688 10.4932C60.9688 8.07524 62.7641 6.10049 65.136 6.10049ZM65.4811 7.79011C63.9411 7.79011 62.922 8.97375 62.922 10.4909C62.922 12.0081 63.9581 13.1963 65.4811 13.1963C67.004 13.1963 68.0402 12.0126 68.0402 10.4909C68.0402 8.96921 67.0211 7.79011 65.4811 7.79011Z" fill="white"/>
<path d="M75.2394 6.10052C75.7717 6.0933 76.2986 6.20696 76.7784 6.43257C77.2582 6.65817 77.6778 6.98956 78.0043 7.40063V2.54431H79.9065V14.721H78.0043V13.5903C77.6779 14.0012 77.2585 14.3324 76.779 14.5582C76.2995 14.7839 75.7731 14.8979 75.2409 14.8912C72.869 14.8912 71.0698 12.9112 71.0698 10.4932C71.0698 8.07526 72.869 6.10052 75.2409 6.10052M75.5845 7.79013C74.0445 7.79013 73.0254 8.97377 73.0254 10.4909C73.0254 12.0081 74.0662 13.1963 75.5845 13.1963C77.1028 13.1963 78.1436 12.0127 78.1436 10.4909C78.1436 8.96923 77.1237 7.79013 75.5845 7.79013Z" fill="white"/>
<path d="M85.3381 6.10052C85.8702 6.09354 86.3967 6.20732 86.8763 6.43291C87.3558 6.65851 87.7752 6.98977 88.1015 7.40063V6.27145H89.999V14.7203H88.0922V13.5903C87.7658 14.0012 87.3464 14.3324 86.8669 14.5582C86.3874 14.7839 85.8609 14.8979 85.3288 14.8912C82.9577 14.8912 81.1577 12.9112 81.1577 10.4932C81.1577 8.07527 82.9662 6.10052 85.3365 6.10052M85.6824 7.79241C84.1425 7.79241 83.1233 8.97604 83.1233 10.4932C83.1233 12.0104 84.1634 13.1986 85.6824 13.1986C87.2015 13.1986 88.2408 12.0149 88.2408 10.4932C88.2408 8.97151 87.2232 7.79014 85.684 7.79014" fill="white"/>
<path d="M14.5293 23.0488C14.323 23.0499 14.1201 22.9977 13.9411 22.8975C12.4043 22.0308 1.02474 15.0575 0.595254 14.8442C0.434317 14.7711 0.295499 14.6584 0.192303 14.5173C0.0891067 14.3761 0.0250455 14.2113 0.0063507 14.0388V4.25731C0.00243111 4.078 0.0451817 3.90065 0.130592 3.7419C0.216002 3.58315 0.341273 3.44821 0.494653 3.34973L0.577455 3.30435C1.67788 2.63501 5.36374 0.437152 5.94646 0.121011C6.07993 0.0432127 6.23215 0.00145259 6.38755 0C6.53463 0.000810582 6.67932 0.0363588 6.8093 0.103616C6.8093 0.103616 11.967 3.38906 12.7556 3.68251C13.3091 3.93075 13.9126 4.05454 14.5215 4.04479C15.2117 4.05926 15.8938 3.89653 16.4995 3.57284C17.2672 3.17653 22.1943 0.121011 22.2477 0.121011C22.3718 0.0477319 22.5144 0.00975258 22.6594 0.0113448C22.8151 0.0120738 22.9678 0.0538814 23.1013 0.132356C23.7722 0.494632 28.3402 3.22796 28.5345 3.34822C28.6925 3.44132 28.8228 3.57311 28.9127 3.73057C29.0025 3.88803 29.0487 4.06569 29.0468 4.24597V14.0274C29.0292 14.2002 28.9657 14.3654 28.8625 14.5067C28.7593 14.648 28.6201 14.7605 28.4586 14.8329C28.0284 15.0598 16.6845 22.0361 15.1182 22.8877C14.94 22.9915 14.7367 23.0471 14.5293 23.0488Z" fill="url(#paint0_linear_450_65)"/>
<path d="M14.4709 23.0488H14.5298C14.7363 23.05 14.9394 22.9978 15.1187 22.8975C16.6555 22.0293 28.0289 15.056 28.4591 14.8428C28.6206 14.7703 28.7598 14.6579 28.863 14.5166C28.9661 14.3753 29.0297 14.21 29.0473 14.0373V4.25734C29.0491 4.09239 29.0109 3.92936 28.9358 3.78162L14.4709 11.5414V23.0488Z" fill="url(#paint1_linear_450_65)"/>
<path d="M14.4206 22.9112H14.3625C14.1581 22.9116 13.9571 22.8594 13.7798 22.7599C12.26 21.9037 1.00581 15.0046 0.582516 14.7936C0.422667 14.7222 0.284756 14.6111 0.182518 14.4713C0.0802802 14.3316 0.0172841 14.1681 -0.000195798 13.9972V4.32011C-0.00179112 4.15624 0.036119 3.9943 0.110465 3.84741L14.4206 11.5263V22.9112Z" fill="url(#paint2_linear_450_65)"/>
</g>
<defs>
<linearGradient id="paint0_linear_450_65" x1="0.0775221" y1="11.5875" x2="28.8535" y2="11.3582" gradientUnits="userSpaceOnUse">
<stop stop-color="white"/>
<stop offset="0.338542" stop-color="#D2D2D2"/>
<stop offset="0.57" stop-color="#BCBCBE"/>
<stop offset="0.78" stop-color="#DADADA"/>
<stop offset="0.93" stop-color="#D0D0D0"/>
<stop offset="1" stop-color="#ACACAC"/>
</linearGradient>
<linearGradient id="paint1_linear_450_65" x1="8.16857" y1="20.7923" x2="37.1856" y2="4.35511" gradientUnits="userSpaceOnUse">
<stop stop-color="white"/>
<stop offset="1" stop-color="#232324"/>
</linearGradient>
<linearGradient id="paint2_linear_450_65" x1="11.2429" y1="16.1453" x2="-2.67344" y2="4.67357" gradientUnits="userSpaceOnUse">
<stop stop-color="white"/>
<stop offset="1" stop-color="#727276"/>
</linearGradient>
<clipPath id="clip0_450_65">
<rect width="90" height="23.0488" fill="white"/>
</clipPath>
</defs>
</svg>
