<svg width="100" height="23" viewBox="0 0 100 23" fill="none" xmlns="http://www.w3.org/2000/svg">
<g clip-path="url(#clip0_449_100)">
<path d="M14.639 14.3065C14.639 16.3117 13.9532 18.0052 12.5922 19.387C11.2208 20.7688 9.53766 21.4545 7.53247 21.4545C5.50649 21.4545 3.8026 20.7688 2.44156 19.4078C1.07013 18.0364 0.394806 16.3429 0.394806 14.3169V2.91948C0.394806 2.25454 0.602598 1.71428 1.00779 1.2987C1.41299 0.883116 1.95325 0.675323 2.60779 0.675323C3.27273 0.675323 3.81299 0.883116 4.22857 1.2987C4.64416 1.71428 4.85195 2.25454 4.85195 2.91948V4.67532H12.426C13.0909 4.67532 13.6208 4.88312 14.026 5.28831C14.4312 5.69351 14.639 6.23377 14.639 6.88831C14.639 8.38441 13.9013 9.14286 12.426 9.14286H4.85195V14.3065C4.85195 15.0545 5.11169 15.6883 5.63117 16.2078C6.15065 16.7273 6.78442 16.987 7.53247 16.987C8.28052 16.987 8.91429 16.7273 9.41299 16.2078C9.92208 15.6883 10.1714 15.0545 10.1714 14.3065V14.0052C10.1714 13.361 10.3896 12.8416 10.8156 12.4156C11.2416 12 11.7818 11.7922 12.4156 11.7922C13.0597 11.7922 13.5792 12 14.0052 12.4156C14.4208 12.8312 14.6286 13.361 14.6286 14.0052L14.639 14.3065Z" fill="#EB0500"/>
<path d="M35.3662 10.6805C34.6701 10.2961 33.8597 10.1299 33.0701 10.213C32.0208 10.3273 30.5351 10.8779 29.8909 12.5299C29.8909 12.6857 29.0805 13.7039 30.0467 17.3922C29.7558 18.2753 24.3013 18.639 23.6779 13.3922C23.6052 12.8104 23.1065 12.374 22.5247 12.374H20.7792C19.761 12.374 18.9402 13.1948 18.9402 14.213C18.9402 14.4104 18.9714 14.6078 19.0338 14.8052C19.8441 17.174 21.6935 20.5818 25.8182 21.787C25.8182 21.787 31.948 23.4286 36.4779 18.1818C36.4779 18.1714 39.6987 13.0701 35.3662 10.6805ZM34.774 14.8364C34.5039 15.8442 33.3091 16.7584 33.3091 16.7584V16.6649C32.5818 14.3792 32.6649 12.9143 33.7662 13.0078C34.8675 13.1013 35.0545 13.8286 34.774 14.8364Z" fill="#EB0500"/>
<path d="M23.6779 4.41559C23.6571 5.83896 22.4831 6.97143 21.0597 6.95065C19.6364 6.94026 18.4935 5.76624 18.5143 4.34286C18.5351 2.94026 19.6675 1.81818 21.0701 1.80779C22.5662 1.79741 23.6987 2.92987 23.6779 4.41559Z" fill="#EB0500"/>
<path d="M34.1818 7.13766C32.7481 7.13766 31.5221 5.92208 31.5325 4.50909C31.5429 3.14805 32.7065 1.98441 34.0987 1.95325C35.5013 1.91169 36.6753 3.02338 36.7169 4.43636C36.7169 4.47792 36.7169 4.51948 36.7169 4.55065C36.7065 5.94286 35.5325 7.13766 34.1818 7.13766Z" fill="#EB0500"/>
<path d="M71.2 1.97403C74.026 1.97403 76.4156 2.94026 78.3585 4.86234C80.3013 6.78442 81.2676 9.16364 81.2676 12C81.2676 14.826 80.3013 17.2156 78.3585 19.1584C76.4156 21.1013 74.0364 22.0675 71.2 22.0675C68.3741 22.0675 65.9949 21.1013 64.0624 19.1584C62.1403 17.2156 61.1741 14.8364 61.1741 12C61.1741 9.17403 62.1403 6.79481 64.0624 4.86234C65.9949 2.94026 68.3741 1.97403 71.2 1.97403ZM71.2 7.28312C69.891 7.28312 68.7793 7.74026 67.8546 8.65455C66.9403 9.56884 66.4832 10.6909 66.4832 12C66.4832 13.3091 66.9403 14.4312 67.8546 15.3662C68.7689 16.3013 69.8806 16.7584 71.2 16.7584C72.5091 16.7584 73.6312 16.2909 74.5663 15.3662C75.5013 14.4312 75.9585 13.3195 75.9585 12C75.9585 10.6909 75.491 9.57922 74.5663 8.65455C73.6312 7.74026 72.5091 7.28312 71.2 7.28312Z" fill="#EB0500"/>
<path d="M88.0623 3.18962L91.2831 11.5221L94.5039 3.18962C94.9506 2.03638 95.7506 1.46495 96.9039 1.46495C97.6415 1.46495 98.2753 1.7143 98.8259 2.213C99.3766 2.7117 99.6467 3.32469 99.6467 4.06235C99.6467 4.40521 99.5844 4.74807 99.4493 5.08053L93.7454 19.8234C93.1948 21.2364 92.374 21.9429 91.2727 21.9429C90.1714 21.9429 89.3506 21.2364 88.8 19.8234L83.1065 5.07014C82.9714 4.72729 82.9091 4.38443 82.9091 4.05196C82.9091 3.3143 83.1792 2.70131 83.7298 2.20261C84.2805 1.70391 84.9246 1.45456 85.6519 1.45456C86.8156 1.45456 87.6155 2.03638 88.0623 3.18962Z" fill="#EB0500"/>
<path d="M58.2026 15.1792C58.2026 16.7481 58.2234 18.3065 58.2026 19.8753C58.1818 21.2364 57.1844 22.0468 55.5844 22.0468C53.9844 22.0468 53.0286 21.2364 53.0286 19.8442C53.0182 16.852 53.039 13.8597 53.0182 10.8675C53.0078 9.25715 52.2598 8.03118 50.826 7.30391C49.6 6.68053 48.4052 6.88832 47.3143 7.68832C46.2234 8.48832 45.7974 9.6104 45.787 10.9195C45.787 13.8182 45.7974 16.7169 45.787 19.626C45.787 21.2468 44.9039 22.0572 43.1585 22.0675C41.4026 22.0779 40.5818 21.3091 40.5818 19.6364C40.5818 16.7377 40.5611 13.839 40.5818 10.9299C40.613 6.15066 44.5299 2.40001 49.4338 2.43118C54.2442 2.46235 58.1507 6.23378 58.1922 10.9091C58.213 12.3221 58.2026 13.7455 58.2026 15.1792Z" fill="#EB0500"/>
</g>
<defs>
<clipPath id="clip0_449_100">
<rect width="100" height="23" fill="white"/>
</clipPath>
</defs>
</svg>
