<svg width="80" height="26" viewBox="0 0 80 26" fill="none" xmlns="http://www.w3.org/2000/svg">
<path fill-rule="evenodd" clip-rule="evenodd" d="M14.5998 17.9025C14.5383 18.4577 14.3264 18.9859 13.9865 19.4312C13.6467 19.8766 13.1916 20.2223 12.6697 20.4318C12.0171 20.7016 11.313 20.8265 10.6066 20.7978C9.62524 20.7615 8.66392 20.5115 7.79075 20.0657C7.39006 19.8465 7.01184 19.589 6.66144 19.2971C6.57286 19.2202 6.56179 19.1726 6.62084 19.0884L6.84228 18.7627L7.07847 18.4223C7.09097 18.4003 7.10862 18.3816 7.12993 18.3678C7.15125 18.354 7.1756 18.3454 7.20093 18.3429C7.22626 18.3404 7.25183 18.344 7.27548 18.3533C7.29913 18.3627 7.32016 18.3775 7.33681 18.3966H7.35526L7.40693 18.4369L7.47705 18.4918C8.36978 19.2045 9.46593 19.6207 10.6103 19.6814C12.1419 19.6595 13.2454 18.975 13.4447 17.9245C13.6624 16.7715 12.7472 15.7722 10.9572 15.2159C10.1953 14.9617 9.44864 14.6647 8.72076 14.3264C7.49058 13.6163 6.91855 12.6829 7.00466 11.5263C7.13014 9.93038 8.62481 8.73713 10.5181 8.72981C11.3769 8.7311 12.2267 8.90415 13.0166 9.23859C13.3571 9.38773 13.6843 9.56528 13.9946 9.76933C14.0167 9.78055 14.0362 9.79636 14.0516 9.8157C14.0671 9.83503 14.0781 9.85744 14.0841 9.8814C14.0901 9.90535 14.0907 9.93029 14.0861 9.95454C14.0815 9.97878 14.0717 10.0017 14.0573 10.0219L13.858 10.3403L13.655 10.6515C13.596 10.7393 13.5259 10.7503 13.4188 10.6807C12.5656 10.11 11.5619 9.8007 10.5328 9.79129C9.2153 9.81691 8.22992 10.5966 8.16349 11.6544C8.16349 12.6097 8.87208 13.3088 10.4332 13.8506C13.6034 14.8608 14.8175 16.0467 14.5887 17.9135L14.5998 17.9025ZM10.7026 1.39823C12.7656 1.39823 14.4485 3.33819 14.526 5.79059H6.85704C6.93823 3.33819 8.61743 1.39823 10.7026 1.39823ZM21.3646 6.2225C21.3651 6.16259 21.3536 6.10318 21.3308 6.04769C21.308 5.9922 21.2744 5.94173 21.2319 5.8992C21.1893 5.85666 21.1387 5.8229 21.0829 5.79986C21.0272 5.77682 20.9674 5.76496 20.907 5.76497H15.9505C15.8288 2.56221 13.5148 0 10.7026 0C7.89039 0 5.53582 2.56221 5.41772 5.77229H0.450247C0.330796 5.77419 0.216833 5.82235 0.132704 5.90648C0.0485739 5.9906 0.000947956 6.10402 0 6.2225L0 6.25545L0.708585 21.7422C0.708585 21.7861 0.708585 21.8263 0.708585 21.8703C0.708585 21.9142 0.708585 21.8922 0.708585 21.8996V21.9325H0.738109C0.764072 22.4447 0.978709 22.9297 1.3413 23.2954C1.70389 23.6611 2.1892 23.8821 2.70517 23.9164H18.5376C19.0693 23.8925 19.5735 23.6758 19.9546 23.3073C20.3356 22.9389 20.5669 22.4444 20.6043 21.9179V21.8703C20.6062 21.8422 20.6062 21.8141 20.6043 21.7861L21.3757 6.24813V6.2225H21.3646ZM73.8811 16.3103C74.0333 15.8281 74.3388 15.4078 74.7519 15.1122C75.165 14.8166 75.6636 14.6616 76.1729 14.6705C76.6823 14.6796 77.1772 14.8405 77.5931 15.1323C78.0091 15.4241 78.3269 15.8333 78.5053 16.3066L78.5275 16.3725H73.8626L73.8811 16.3103ZM79.5682 17.7305H79.6014C79.7107 17.7239 79.8132 17.6756 79.8875 17.5958C79.9618 17.516 80.0021 17.4108 80 17.3022V17.24C80.0227 16.7275 79.9405 16.2158 79.7584 15.7356C79.5763 15.2555 79.2981 14.8169 78.9405 14.4463C78.5829 14.0757 78.1533 13.7808 77.6776 13.5793C77.202 13.3778 76.6901 13.2739 76.1729 13.2739C75.6557 13.2739 75.1438 13.3778 74.6682 13.5793C74.1925 13.7808 73.7629 14.0757 73.4053 14.4463C73.0477 14.8169 72.7695 15.2555 72.5874 15.7356C72.4053 16.2158 72.3231 16.7275 72.3458 17.24C72.3452 17.4014 72.3538 17.5627 72.3716 17.7232V17.7744C72.4759 18.5477 72.8144 19.2714 73.3422 19.8498C73.9428 20.4989 74.7414 20.9348 75.6156 21.0906H75.671H75.7743C76.8229 21.2423 77.8932 21.0804 78.8485 20.6258C79.0513 20.5215 79.244 20.3989 79.4243 20.2597C79.4742 20.2244 79.5222 20.1865 79.5682 20.1463L79.6199 20.1023C79.8155 19.901 79.8265 19.8278 79.7084 19.6448C79.5903 19.4618 79.4612 19.2605 79.3615 19.1141L79.273 18.9823L79.2508 18.9494C79.1438 18.8139 79.0663 18.8029 78.9482 18.9091L78.8855 18.9603C78.3843 19.4044 77.7616 19.6911 77.0962 19.7842C76.4308 19.8774 75.7524 19.7728 75.1469 19.4838C74.7993 19.3188 74.4944 19.0769 74.2558 18.7767C74.0172 18.4766 73.8511 18.1262 73.7703 17.7524V17.6939L79.5682 17.7305ZM64.7728 16.3103C64.925 15.8281 65.2305 15.4078 65.6436 15.1122C66.0568 14.8166 66.5553 14.6616 67.0646 14.6705C67.5724 14.6831 68.0646 14.8464 68.4778 15.1394C68.8909 15.4324 69.206 15.8415 69.3823 16.3139L69.4044 16.3798H64.7543V16.3176L64.7728 16.3103ZM70.4599 17.7305H70.4895C70.5984 17.723 70.7004 17.6745 70.7745 17.5949C70.8486 17.5153 70.8892 17.4106 70.888 17.3022V17.24C70.904 16.7314 70.8167 16.2248 70.6314 15.7502C70.4462 15.2757 70.1667 14.8429 69.8096 14.4775C69.4525 14.1122 69.025 13.8217 68.5525 13.6233C68.08 13.4249 67.5722 13.3227 67.0591 13.3227C66.546 13.3227 66.0382 13.4249 65.5657 13.6233C65.0932 13.8217 64.6657 14.1122 64.3086 14.4775C63.9515 14.8429 63.672 15.2757 63.4867 15.7502C63.3015 16.2248 63.2142 16.7314 63.2301 17.24C63.2308 17.4015 63.2406 17.5628 63.2597 17.7232V17.7744C63.364 18.5477 63.7024 19.2714 64.2303 19.8498C64.8298 20.4982 65.627 20.9341 66.5 21.0906H66.5553H66.6587C67.7092 21.2585 68.7863 21.1106 69.7513 20.666C69.9541 20.5617 70.1468 20.4392 70.3271 20.3C70.377 20.2647 70.425 20.2268 70.471 20.1865L70.519 20.1426C70.7183 19.9413 70.7293 19.8681 70.6112 19.6851C70.4931 19.5021 70.364 19.3007 70.2643 19.1543L70.1758 19.0226L70.1499 18.9896C70.0392 18.8542 69.9654 18.8432 69.8473 18.9494L69.7846 19.0006C69.2851 19.4422 68.6653 19.7278 68.0029 19.8216C67.3405 19.9153 66.6649 19.8131 66.0608 19.5277C65.7132 19.3627 65.4083 19.1208 65.1697 18.8207C64.931 18.5205 64.765 18.1701 64.6842 17.7964V17.7378L70.4599 17.7305ZM57.8198 19.8937C57.1372 19.8959 56.4807 19.6334 55.9905 19.1622C55.5002 18.6911 55.2151 18.0485 55.1958 17.3718V17.24C55.206 16.7276 55.3685 16.2295 55.6629 15.8084C55.9574 15.3872 56.3707 15.0616 56.8509 14.8725C57.3312 14.6833 57.8571 14.639 58.3627 14.7452C58.8682 14.8513 59.3309 15.1031 59.6927 15.469C60.0545 15.835 60.2994 16.2987 60.3965 16.8021C60.4936 17.3055 60.4387 17.8261 60.2387 18.2986C60.0387 18.7712 59.7024 19.1747 59.2721 19.4584C58.8418 19.7422 58.3366 19.8936 57.8198 19.8937ZM57.8198 13.3454C56.8938 13.344 55.9957 13.6595 55.277 14.2386L55.1958 14.3044V13.5724C55.1958 13.382 55.1552 13.3381 54.9596 13.3381H54.0407C53.8414 13.3381 53.8008 13.3784 53.8008 13.5724V25.1316C53.8008 25.3219 53.8488 25.3659 54.0407 25.3659H54.9596C55.1515 25.3659 55.1958 25.3219 55.1958 25.1316V20.3183L55.277 20.3842C55.7724 20.7907 56.3592 21.0728 56.9878 21.2069C57.6164 21.3409 58.2683 21.3228 58.8884 21.1542C59.5084 20.9856 60.0784 20.6713 60.5502 20.2381C61.0219 19.8048 61.3815 19.2652 61.5986 18.665C61.8156 18.0647 61.8838 17.4215 61.7972 16.7896C61.7107 16.1577 61.472 15.5558 61.1014 15.0347C60.7307 14.5137 60.239 14.0888 59.6678 13.796C59.0966 13.5033 58.4628 13.3512 57.8198 13.3528V13.3454ZM48.3831 19.8132C47.8743 19.8038 47.3796 19.6456 46.9611 19.3584C46.5427 19.0713 46.219 18.6679 46.0308 18.199C45.8426 17.73 45.7983 17.2164 45.9033 16.7226C46.0083 16.2287 46.2581 15.7767 46.6212 15.4231C46.9843 15.0695 47.4447 14.8301 47.9444 14.7351C48.4442 14.64 48.9612 14.6934 49.4304 14.8887C49.8997 15.0839 50.3004 15.4123 50.5822 15.8326C50.864 16.2528 51.0143 16.7463 51.0144 17.251C51.0076 17.9367 50.7267 18.5917 50.2333 19.0721C49.7399 19.5525 49.0745 19.819 48.3831 19.8132ZM48.3831 13.3198C47.6016 13.3314 46.841 13.5718 46.1969 14.0109C45.5528 14.45 45.054 15.0681 44.7632 15.7876C44.4723 16.5071 44.4024 17.2958 44.5623 18.0545C44.7221 18.8133 45.1045 19.5083 45.6615 20.052C46.2185 20.5958 46.9251 20.9642 47.6926 21.1108C48.46 21.2574 49.2541 21.1756 49.9748 20.8759C50.6956 20.5762 51.3109 20.0718 51.7435 19.4261C52.176 18.7805 52.4064 18.0225 52.4058 17.2473C52.396 16.1979 51.9671 15.1951 51.213 14.4588C50.4589 13.7226 49.4412 13.313 48.3831 13.3198ZM39.4077 13.4077C38.5986 13.4055 37.8104 13.6623 37.1601 14.1397L37.0789 14.1946V8.84328C37.0789 8.66392 37.0199 8.60902 36.8427 8.60902H35.8832C35.6876 8.60902 35.6433 8.65294 35.6433 8.84328V21.0723C35.6433 21.259 35.6913 21.3066 35.8832 21.3066H36.8427C37.0199 21.3066 37.0789 21.248 37.0789 21.0723V17.0789C37.0789 16.4664 37.3243 15.8789 37.761 15.4458C38.1977 15.0126 38.79 14.7693 39.4077 14.7693C40.0253 14.7693 40.6176 15.0126 41.0543 15.4458C41.4911 15.8789 41.7364 16.4664 41.7364 17.0789V21.0723C41.7364 21.2736 41.7696 21.3066 41.9726 21.3066H42.9321C43.1351 21.3066 43.1683 21.2736 43.1683 21.0723V17.0753C43.1519 16.0976 42.7481 15.1655 42.0445 14.4806C41.3408 13.7957 40.3936 13.4129 39.4077 13.415V13.4077ZM26.0405 19.0884C25.9003 19.2934 25.8449 19.3813 25.8117 19.4325C25.7047 19.5899 25.7194 19.6595 25.8818 19.7985C26.2588 20.1018 26.6655 20.3667 27.096 20.5892C28.0277 21.0409 29.0484 21.2833 30.0853 21.2993C30.8362 21.322 31.5831 21.1821 32.2738 20.8893C32.8333 20.6577 33.3191 20.2802 33.6797 19.7969C34.0403 19.3135 34.2623 18.7424 34.3221 18.1441C34.5325 16.1456 33.2149 14.8974 29.8455 13.8908C28.2733 13.3894 27.5352 12.7195 27.5352 11.7862C27.5832 10.754 28.5464 9.98163 29.8491 9.93404C30.876 9.92997 31.8807 10.2294 32.7352 10.7942C32.9271 10.9113 33.0156 10.8894 33.1448 10.721C33.1448 10.699 33.2002 10.6368 33.3736 10.3916L33.6024 10.0622C33.7095 9.86084 33.6947 9.78031 33.4991 9.64122C33.1639 9.43256 32.8122 9.25138 32.4473 9.0995C31.6047 8.76202 30.7024 8.59525 29.7938 8.60902C27.764 8.65294 26.1807 9.95967 26.0774 11.68C25.9888 12.9208 26.6236 13.9091 27.9485 14.6412C28.7183 14.9836 29.5083 15.2794 30.3142 15.527C32.1188 16.0504 33.0599 17.0167 32.8643 18.1514C32.6909 19.1873 31.5985 19.8754 30.0669 19.9193C28.9041 19.8782 27.7837 19.4762 26.8635 18.77L26.7897 18.7151L26.7159 18.6602C26.5166 18.5248 26.4022 18.5357 26.2804 18.7151L26.0405 19.0811V19.0884Z" fill="white"/>
</svg>
