<svg width="20" height="22" viewBox="0 0 20 22" fill="none" xmlns="http://www.w3.org/2000/svg">
<path d="M17.3662 9.68052C16.6701 9.29611 15.8597 9.12987 15.0701 9.21299C14.0208 9.32727 12.5351 9.87792 11.8909 11.5299C11.8909 11.6857 11.0805 12.7039 12.0467 16.3922C11.7558 17.2753 6.30128 17.639 5.67791 12.3922C5.60518 11.8104 5.10648 11.374 4.52466 11.374H2.77921C1.76103 11.374 0.940247 12.1948 0.940247 13.213C0.940247 13.4104 0.971415 13.6078 1.03375 13.8052C1.84414 16.174 3.69349 19.5818 7.81817 20.787C7.81817 20.787 13.948 22.4286 18.4779 17.1818C18.4779 17.1714 21.6987 12.0701 17.3662 9.68052ZM16.774 13.8364C16.5039 14.8442 15.3091 15.7584 15.3091 15.7584V15.6649C14.5818 13.3792 14.6649 11.9143 15.7662 12.0078C16.8675 12.1013 17.0545 12.8286 16.774 13.8364Z" fill="#EB0500"/>
<path d="M5.67792 3.41559C5.65714 4.83896 4.48312 5.97143 3.05974 5.95065C1.63636 5.94026 0.493507 4.76624 0.514286 3.34286C0.535066 1.94026 1.66753 0.818185 3.07013 0.807795C4.56624 0.797405 5.6987 1.92987 5.67792 3.41559Z" fill="#EB0500"/>
<path d="M16.1818 6.13766C14.7481 6.13766 13.5221 4.92208 13.5325 3.50909C13.5429 2.14805 14.7065 0.984415 16.0987 0.953246C17.5013 0.911688 18.6753 2.02338 18.7169 3.43636C18.7169 3.47792 18.7169 3.51948 18.7169 3.55065C18.7065 4.94286 17.5325 6.13766 16.1818 6.13766Z" fill="#EB0500"/>
</svg>
